<?xml version="1.0" encoding="UTF-8"?>
<svg id="logo-89" xmlns="http://www.w3.org/2000/svg" xmlns:xlink="http://www.w3.org/1999/xlink" viewBox="0 0 39.9 39.9">
  <defs>
    <style>
      .cls-1 {
        fill: url(#Gradiente_sem_nome_10-2);
      }

      .cls-1, .cls-2, .cls-3, .cls-4 {
        stroke-width: 0px;
      }

      .cls-2 {
        fill: url(#Gradiente_sem_nome_10-4);
      }

      .cls-3 {
        fill: url(#Gradiente_sem_nome_10);
      }

      .cls-4 {
        fill: url(#Gradiente_sem_nome_10-3);
      }
    </style>
    <linearGradient id="Gradiente_sem_nome_10" data-name="Gradiente sem nome 10" x1="13" y1="18.9" x2="25.3" y2="18.9" gradientUnits="userSpaceOnUse">
      <stop offset="0" stop-color="#d9f99d"/>
      <stop offset=".14" stop-color="#bbe378"/>
      <stop offset=".32" stop-color="#9ccc52"/>
      <stop offset=".5" stop-color="#84ba34"/>
      <stop offset=".68" stop-color="#73ad1e"/>
      <stop offset=".84" stop-color="#68a511"/>
      <stop offset="1" stop-color="#65a30d"/>
    </linearGradient>
    <linearGradient id="Gradiente_sem_nome_10-2" data-name="Gradiente sem nome 10" x1="5.2" y1="22.65" x2="39.9" y2="22.65" xlink:href="#Gradiente_sem_nome_10"/>
    <linearGradient id="Gradiente_sem_nome_10-3" data-name="Gradiente sem nome 10" x1="6.2" y1="13.4" x2="20.6" y2="13.4" xlink:href="#Gradiente_sem_nome_10"/>
    <linearGradient id="Gradiente_sem_nome_10-4" data-name="Gradiente sem nome 10" x1="0" y1="11" x2="22" y2="11" xlink:href="#Gradiente_sem_nome_10"/>
  </defs>
  <path class="cls-3" d="M21.4,13c-.2,0-.4.1-.5.1h-.2c-.1,1.9-.9,3.8-2.3,5.2-1.4,1.4-3.3,2.2-5.2,2.3h0v.2c0,.2-.1.4-.1.5h0c0,.2,0,.4-.1.5h0v1.1h0v.2h0v.2h0v.4h0v.2h0c0,.1,0,.3.1.4h0c0,.2.1.4.1.5s.1.2.1.3h0c3-.2,6-1.4,8.3-3.7s3.5-5.3,3.7-8.3c-.1,0-.2-.1-.3-.1-.2,0-.4-.1-.6-.1s-.4-.1-.5-.1c-.4-.1-.9-.1-1.3-.1h-.7c-.2.3-.4.3-.5.3Z"/>
  <path class="cls-1" d="M23.7,6.6c.7,1.3,1.2,2.8,1.4,4.2,0,.2.1.4.1.6v.6c.2.1.4.1.6.2.2.1.4.1.6.2h0c.1,0,.2.1.3.1,1.3.5,2.5,1.3,3.5,2.4,2.1,2.1,3.2,4.8,3.2,7.7s-1.1,5.6-3.2,7.7-4.8,3.2-7.7,3.2-5.6-1.1-7.7-3.2c-1.1-1.1-1.9-2.4-2.5-3.8h0c-.1-.2-.1-.4-.2-.6h0c-.1-.2-.1-.4-.2-.6h-1.8c-.2,0-.4-.1-.7-.2h-.2c-.3-.1-.5-.2-.8-.2-.1,0-.3-.1-.4-.2-.1,0-.3-.1-.4-.2s-.3-.1-.4-.2c-.1,0-.1-.1-.2-.1h-.1c-.1,0-.1-.1-.2-.1h0c-.1,0-.2-.1-.3-.1,0,0-.1,0-.1-.1-.1-.1-.2-.1-.3-.2l-.1-.1h-.1c-.2-.1-.4-.3-.6-.4v.7h0c0,.2,0,.5.1.7h0c.4,3.9,2.1,7.5,4.9,10.3,3.5,3.2,7.8,5,12.4,5s8.9-1.8,12.2-5.1,5.1-7.6,5.1-12.2c0-2.3-.4-4.5-1.3-6.6-.9-2.1-2.1-4-3.8-5.6-2.8-2.8-6.4-4.5-10.3-4.9h0c-.2,0-.5,0-.7-.1h-.7c.1.2.3.4.4.6,0,.2.1.4.2.6Z"/>
  <path class="cls-4" d="M7.1,18.3q0,.1,0,0c.2.2.3.3.5.4,0,.1,0,.2.1.2.1.1.2.1.2.2l.2.2c.1.1.2.1.3.2h.1c.1,0,.1.1.2.1h0c.1,0,.1.1.2.1.1,0,.2.1.3.2h.2c.1,0,.1.1.2.1s.1.1.2.1.1.1.2.1c.2.1.5.2.7.2.1,0,.2,0,.2.1h.4c.2,0,.4.1.6.1,0-.2.1-.4.1-.6h0c0-.2.1-.4.2-.6h0c.5-1.7,1.4-3.2,2.7-4.5,1.3-1.3,2.8-2.2,4.5-2.7h0c.2-.1.4-.1.6-.2h0c.2-.1.4-.1.6-.1,0-.2,0-.4-.1-.6,0-.2-.1-.4-.1-.6-.3-1.3-1-2.6-2-3.6h0c-.2-.2-.4-.3-.5-.5-.2-.2-.4-.3-.6-.4-.2.1-.5.2-.7.2h0c-.2.1-.4.2-.6.3h-.1c-2,.9-3.9,2.1-5.4,3.7-1.7,1.6-2.9,3.5-3.8,5.5v.1c-.1.2-.2.4-.3.7h0c-.1.2-.2.5-.2.7.1.1.2.2.3.3h0l.1.1.1.1h0c.1.1.2.3.4.4Z"/>
  <path class="cls-2" d="M4.2,22h0c0-.4.1-.8.1-1.3.1-1.1.3-2.2.6-3.2,0-.2.1-.4.2-.6.1-.3.2-.7.4-1h0c-.4-1-.7-2.1-.7-3.2,0-2.1.8-4.1,2.3-5.6,1.6-1.6,3.6-2.3,5.6-2.3,1,0,2,.2,3,.6.1,0,.1.1.2.1h0c.3-.1.7-.3,1-.4.2-.1.4-.2.6-.2,1.1-.3,2.1-.5,3.2-.6.4,0,.9-.1,1.3-.1h0c-.1-.1-.2-.3-.4-.4-.3-.3-.6-.6-1-.9-.2-.1-.3-.3-.5-.4-1.6-1.2-3.5-1.9-5.4-2.3-.2,0-.4-.1-.6-.1-.5-.1-1-.1-1.5-.1s-1,0-1.5.1c-.2,0-.4.1-.6.1-1.8.4-3.7,1.1-5.3,2.3-.2.1-.3.3-.5.4-.3.3-.7.6-1,.9C1.3,6.2,0,9.4,0,12.7s1.3,6.5,3.7,8.9c.2.2.3.3.5.4Z"/>
</svg>